<?xml version="1.0" standalone="no"?>
<!DOCTYPE svg PUBLIC "-//W3C//DTD SVG 20010904//EN"
 "http://www.w3.org/TR/2001/REC-SVG-20010904/DTD/svg10.dtd">
<svg version="1.0" xmlns="http://www.w3.org/2000/svg"
 width="512.000000pt" height="512.000000pt" viewBox="0 0 512.000000 512.000000"
 preserveAspectRatio="xMidYMid meet">

<g transform="translate(0.000000,512.000000) scale(0.100000,-0.100000)"
fill="#000000" stroke="none">
<path d="M830 4901 c-283 -76 -525 -143 -536 -149 -45 -24 -47 -89 -4 -125
l30 -26 0 -289 0 -290 -45 -27 c-75 -44 -77 -49 -73 -250 3 -172 4 -177 27
-196 34 -28 76 -24 127 13 l44 31 44 -31 c55 -39 97 -42 131 -7 25 24 25 27
25 198 0 197 -4 208 -81 247 l-39 20 0 276 c0 151 3 273 8 271 4 -3 26 -10 50
-16 l42 -12 0 -254 c0 -165 4 -263 11 -278 14 -31 38 -43 112 -56 31 -6 82
-16 112 -22 l55 -10 0 -1008 c0 -872 -2 -1010 -15 -1021 -8 -6 -57 -15 -110
-20 -153 -13 -216 -63 -250 -200 -23 -94 -30 -107 -89 -161 -108 -99 -123
-189 -56 -331 l39 -83 -10 -75 c-18 -138 13 -210 120 -280 l23 -16 -86 -185
c-47 -102 -86 -199 -86 -216 0 -38 36 -73 77 -73 17 0 68 7 113 16 45 8 83 14
84 12 1 -2 24 -40 50 -86 50 -86 76 -112 112 -112 43 0 69 38 159 234 99 216
101 219 176 195 40 -14 41 -15 105 -164 36 -82 74 -159 84 -169 24 -24 74 -25
100 -1 11 10 41 52 67 94 25 42 47 77 48 78 1 2 50 -7 109 -19 l107 -21 27 20
c35 26 39 74 13 136 l-20 47 825 0 825 0 62 -63 c111 -112 241 -185 407 -229
105 -27 286 -27 395 2 308 79 538 313 622 630 12 46 17 102 16 195 0 111 -4
143 -27 220 -53 174 -150 321 -286 432 -63 52 -217 135 -272 149 l-28 6 0
1223 c0 828 -3 1233 -10 1252 -12 32 -521 547 -562 569 -23 12 -167 14 -943
14 l-916 0 -247 65 c-136 36 -254 65 -262 64 -8 0 -247 -62 -530 -138z m885
-117 c182 -48 336 -90 343 -93 7 -4 -145 -49 -338 -100 l-351 -94 -354 93
c-195 52 -353 96 -350 98 7 8 700 189 710 186 6 -2 159 -42 340 -90z m1895
-246 c0 -323 -5 -318 318 -318 l212 0 0 -1169 0 -1168 -117 -6 c-138 -6 -216
-27 -343 -93 -157 -81 -280 -207 -360 -369 -63 -128 -80 -193 -87 -336 -6
-130 10 -239 53 -343 13 -33 24 -61 24 -63 0 -2 -364 -3 -808 -3 l-808 0 -17
35 -16 35 47 47 c62 63 74 104 66 225 -6 92 -6 94 30 168 29 59 36 86 36 133
0 79 -18 117 -96 197 -61 63 -67 74 -85 147 -39 151 -97 200 -253 213 -88 7
-97 10 -148 47 -80 60 -117 76 -175 77 l-53 1 0 948 c0 899 1 948 18 943 99
-29 306 -46 417 -34 79 8 591 100 638 114 42 13 47 49 47 318 0 234 1 255 18
260 9 3 71 19 137 37 73 19 129 39 143 52 24 22 29 65 12 98 -11 19 -1 19 570
19 l580 0 0 -212z m293 -26 c64 -64 117 -121 117 -125 0 -4 -56 -7 -125 -7
l-125 0 0 125 c0 69 3 125 8 125 4 0 60 -53 125 -118z m-2850 -98 c155 -41
296 -75 312 -75 17 0 158 34 315 75 157 42 291 76 298 76 10 0 12 -42 10 -192
l-3 -193 -220 -44 c-207 -41 -230 -43 -395 -44 -168 0 -184 1 -400 44 l-225
44 -3 193 c-2 169 -1 192 13 192 9 0 143 -34 298 -76z m-625 -546 c7 -7 12
-31 12 -55 l0 -43 -40 0 -40 0 0 43 c0 45 13 67 40 67 9 0 21 -5 28 -12z m726
-2073 c85 -60 122 -74 213 -81 100 -8 118 -19 133 -86 26 -111 47 -151 115
-218 78 -77 79 -88 29 -195 l-37 -76 6 -108 c3 -59 2 -113 -3 -120 -4 -7 -50
-34 -101 -60 -90 -44 -96 -49 -153 -128 -67 -95 -68 -95 -181 -63 -87 25 -113
25 -200 0 -113 -32 -117 -31 -173 53 -63 92 -71 98 -174 146 -50 23 -89 48
-92 58 -3 10 -2 53 3 95 11 94 3 135 -37 215 -46 90 -43 107 29 178 71 70 90
104 114 203 21 90 32 98 144 106 91 7 124 20 211 85 30 22 63 40 73 41 10 0
47 -20 81 -45z m3096 -96 c238 -66 421 -250 486 -489 24 -87 24 -253 1 -340
-38 -141 -131 -282 -244 -370 -65 -51 -200 -114 -278 -130 -84 -17 -228 -15
-305 5 -306 78 -520 352 -520 665 0 311 219 592 520 665 88 21 252 19 340 -6z
m-2671 -1173 c9 -22 8 -27 -3 -23 -35 14 -105 18 -125 8 -11 -6 -33 -32 -47
-57 l-27 -46 -18 33 c-10 19 -18 37 -19 41 0 3 20 18 44 32 29 17 58 47 87 92
l44 67 27 -59 c15 -32 32 -72 37 -88z m-897 76 c25 -42 68 -82 113 -104 22
-11 41 -22 43 -23 4 -4 -56 -135 -61 -135 -3 0 -17 20 -32 46 -34 58 -57 68
-123 56 -29 -5 -52 -7 -52 -3 0 12 84 191 90 191 3 0 13 -13 22 -28z"/>
<path d="M2346 4379 c-32 -25 -35 -75 -7 -110 l19 -24 475 -3 475 -3 28 24
c35 31 37 77 4 112 l-23 25 -472 0 c-463 0 -473 0 -499 -21z"/>
<path d="M2345 4075 c-16 -15 -25 -36 -25 -55 0 -19 9 -40 25 -55 l24 -25 470
0 470 0 27 23 c35 31 37 77 4 112 l-23 25 -474 0 -474 0 -24 -25z"/>
<path d="M2326 3779 c-37 -29 -37 -89 1 -118 26 -21 28 -21 810 -19 l785 3 19
24 c26 32 24 77 -6 106 l-24 25 -779 0 c-773 0 -780 0 -806 -21z"/>
<path d="M1236 3379 c-20 -16 -26 -29 -26 -59 0 -30 6 -43 26 -59 l27 -21
1324 0 1324 0 24 25 c16 15 25 36 25 55 0 19 -9 40 -25 55 l-24 25 -1324 0
-1324 0 -27 -21z"/>
<path d="M1235 3075 c-35 -34 -34 -86 1 -114 27 -21 29 -21 1139 -21 1110 0
1112 0 1139 21 37 29 37 89 0 118 -27 21 -29 21 -1141 21 l-1114 0 -24 -25z"/>
<path d="M1235 2776 c-35 -35 -34 -87 1 -115 27 -21 29 -21 1161 -21 l1134 0
24 25 c30 29 32 74 6 106 l-19 24 -1141 3 -1142 2 -24 -24z"/>
<path d="M2823 2390 c-47 -19 -58 -92 -20 -128 l23 -22 543 0 542 0 24 25 c40
39 32 96 -16 120 -24 13 -111 15 -551 14 -288 0 -533 -4 -545 -9z"/>
<path d="M2825 2088 c-51 -27 -61 -89 -22 -126 23 -22 27 -22 393 -22 l371 0
21 23 c22 23 28 60 16 92 -16 42 -46 45 -411 45 -233 -1 -355 -4 -368 -12z"/>
<path d="M927 1700 c-240 -76 -385 -341 -322 -585 23 -86 62 -152 131 -222
191 -190 490 -189 680 1 261 263 149 706 -205 810 -75 22 -210 20 -284 -4z
m302 -175 c237 -130 223 -474 -24 -587 -76 -34 -191 -33 -266 5 -208 102 -252
365 -89 528 66 66 132 90 240 86 72 -2 93 -8 139 -32z"/>
<path d="M4395 1483 c-74 -15 -95 -31 -265 -199 l-176 -174 -49 51 c-60 62
-114 88 -178 89 -163 1 -264 -161 -192 -306 31 -63 260 -291 325 -324 57 -29
140 -32 190 -6 49 25 537 512 562 561 41 79 22 192 -44 251 -45 42 -122 67
-173 57z m75 -193 c7 -13 7 -26 1 -37 -12 -23 -494 -503 -505 -503 -22 0 -62
33 -173 143 -126 125 -140 148 -107 181 29 30 55 18 145 -69 132 -127 115
-132 363 114 111 109 208 201 216 203 20 7 47 -8 60 -32z"/>
</g>
</svg>
