<?xml version="1.0" standalone="no"?>
<!DOCTYPE svg PUBLIC "-//W3C//DTD SVG 20010904//EN"
 "http://www.w3.org/TR/2001/REC-SVG-20010904/DTD/svg10.dtd">
<svg version="1.0" xmlns="http://www.w3.org/2000/svg"
 width="512.000000pt" height="512.000000pt" viewBox="0 0 512.000000 512.000000"
 preserveAspectRatio="xMidYMid meet">

<g transform="translate(0.000000,512.000000) scale(0.100000,-0.100000)"
fill="#000000" stroke="none">
<path d="M729 3385 c-49 -27 -52 -48 -44 -377 7 -287 8 -304 28 -325 20 -22
28 -23 172 -23 150 0 152 0 176 26 l24 26 3 301 c3 326 0 347 -49 372 -39 21
-273 20 -310 0z"/>
<path d="M2974 3390 c-53 -22 -54 -30 -54 -368 l0 -313 25 -24 c23 -24 28 -25
175 -25 147 0 152 1 175 25 l25 24 0 315 0 315 -24 28 c-24 28 -25 28 -163 30
-76 1 -148 -2 -159 -7z"/>
<path d="M2950 2341 c-322 -142 -645 -284 -718 -316 -143 -63 -172 -86 -172
-141 0 -53 33 -78 205 -153 l160 -70 5 -428 c5 -423 5 -428 28 -464 22 -36
116 -109 140 -109 9 0 12 101 12 463 l0 464 23 19 c12 11 176 92 364 179 324
149 344 160 360 194 34 69 122 106 234 99 148 -11 232 -96 177 -178 -13 -19
-37 -42 -54 -52 -47 -28 -135 -41 -196 -29 l-53 9 -347 -160 -348 -160 0 -173
c0 -94 -3 -300 -7 -457 l-6 -285 79 -21 c440 -119 1142 -108 1549 25 153 50
267 120 301 184 11 23 14 101 14 452 l0 425 163 72 c89 39 173 82 187 96 33
32 33 86 0 118 -14 14 -256 126 -540 252 -283 125 -605 267 -715 315 -113 50
-213 89 -230 88 -17 0 -292 -116 -615 -258z"/>
</g>
</svg>
