<?xml version="1.0" standalone="no"?>
<!DOCTYPE svg PUBLIC "-//W3C//DTD SVG 20010904//EN"
 "http://www.w3.org/TR/2001/REC-SVG-20010904/DTD/svg10.dtd">
<svg version="1.0" xmlns="http://www.w3.org/2000/svg"
 width="512.000000pt" height="512.000000pt" viewBox="0 0 512.000000 512.000000"
 preserveAspectRatio="xMidYMid meet">

<g transform="translate(0.000000,512.000000) scale(0.100000,-0.100000)"
fill="#000000" stroke="none">
<path d="M1391 5104 c-160 -43 -295 -176 -326 -322 -5 -27 -16 -36 -62 -58
-68 -33 -123 -86 -160 -156 l-28 -53 -6 -320 c-5 -301 -7 -324 -28 -380 -20
-51 -22 -74 -19 -160 3 -85 8 -109 31 -157 42 -86 124 -146 213 -156 l41 -4 7
-77 c12 -148 54 -263 145 -394 55 -79 231 -262 311 -323 l50 -38 0 -62 0 -63
-55 6 c-78 8 -118 -10 -275 -127 -111 -81 -150 -104 -215 -126 -238 -79 -506
-204 -598 -279 -107 -87 -195 -237 -222 -379 -20 -102 -20 -383 -1 -409 7 -9
28 -22 46 -28 27 -10 36 -9 58 8 27 20 27 20 33 194 7 209 11 233 57 329 48
103 129 181 247 242 145 75 430 185 454 176 6 -2 71 -88 146 -193 162 -227
184 -251 236 -265 50 -14 90 -3 168 44 32 20 61 36 63 36 3 0 20 -39 38 -87
l34 -88 -79 -643 -79 -642 -363 0 -363 0 0 309 c0 297 -1 309 -21 335 -25 32
-75 35 -110 7 l-24 -19 -3 -316 -3 -316 -179 0 c-167 0 -181 1 -200 20 -19 19
-20 33 -20 320 0 287 -1 301 -20 320 -32 32 -75 30 -108 -6 -22 -25 -22 -28
-22 -335 0 -257 3 -316 15 -347 21 -49 52 -81 100 -103 39 -18 121 -19 2210
-18 2059 0 2173 1 2222 18 74 25 119 59 157 116 51 78 56 114 56 432 -1 302
-1 307 -47 331 -33 18 -57 15 -81 -11 -20 -21 -21 -33 -24 -322 -3 -281 -4
-302 -23 -335 -12 -19 -36 -43 -55 -55 -35 -20 -48 -20 -955 -20 -907 0 -920
0 -955 20 -19 12 -43 36 -55 55 -19 33 -20 54 -23 337 l-3 303 -26 20 c-35 27
-69 25 -99 -5 l-25 -25 3 -323 c3 -286 5 -326 21 -355 l18 -32 -99 0 -98 0
-62 502 c-34 277 -69 566 -79 643 l-16 140 33 88 c18 48 35 87 38 87 2 0 31
-16 63 -36 78 -47 118 -58 168 -44 52 14 75 39 236 265 75 105 142 191 149
193 15 3 137 -40 283 -101 71 -29 101 -46 98 -55 -3 -8 -5 -54 -5 -102 l0 -89
-262 -3 c-251 -3 -265 -4 -310 -26 -99 -49 -169 -149 -176 -255 -18 -241 168
-486 418 -552 39 -11 112 -15 253 -15 l197 0 0 -26 c0 -16 13 -39 34 -60 l34
-34 247 0 247 0 34 34 c21 21 34 44 34 60 l0 26 198 0 c218 0 270 8 372 60 32
16 89 58 125 92 53 49 75 80 110 152 48 100 71 201 61 273 -14 105 -86 202
-180 245 -48 22 -65 23 -308 26 l-258 3 0 77 c0 103 -14 150 -59 192 -60 58
-88 62 -414 59 -277 -2 -294 -1 -332 18 -62 32 -157 70 -309 124 -130 46 -149
57 -270 146 -165 120 -200 137 -278 130 l-58 -5 1 61 0 62 81 64 c84 68 232
224 285 301 83 121 130 252 142 390 l6 74 42 8 c93 16 169 72 210 156 26 53
28 66 28 177 0 104 -3 126 -22 166 -22 44 -23 55 -23 342 0 314 -5 353 -52
419 -18 26 -18 30 -3 88 9 33 18 118 22 188 7 151 -3 194 -51 223 -30 18 -60
19 -861 18 -692 0 -839 -3 -884 -15z m1639 -235 c0 -117 -17 -185 -65 -268
-41 -69 -125 -151 -191 -184 -113 -57 -110 -57 -711 -57 -371 0 -569 -4 -598
-11 -64 -16 -111 -67 -127 -137 -30 -135 -112 -196 -280 -206 l-98 -6 0 229
c0 138 4 241 11 258 22 58 82 104 150 117 50 9 68 33 84 111 26 124 114 218
225 243 28 6 349 10 823 11 l777 1 0 -101z m40 -640 l0 -231 -22 6 c-13 3 -36
6 -51 6 -17 0 -30 7 -34 18 -22 67 -59 130 -102 175 l-51 54 73 46 c40 25 95
71 123 100 27 30 52 55 57 56 4 1 7 -103 7 -230z m-411 -60 c43 -21 75 -47
102 -81 68 -86 70 -107 67 -525 -3 -362 -3 -369 -28 -438 -35 -101 -123 -224
-247 -349 -193 -193 -352 -276 -528 -277 -200 -1 -362 86 -581 313 -104 108
-144 162 -189 261 -48 106 -55 169 -55 498 l0 295 55 23 c104 43 183 134 221
254 l18 57 551 0 552 0 62 -31z m-1609 -494 l0 -185 -22 0 c-36 0 -83 34 -102
75 -26 53 -20 192 10 232 20 28 77 63 102 63 9 0 12 -44 12 -185z m2010 156
c42 -29 60 -78 60 -159 0 -52 -5 -83 -19 -110 -20 -39 -66 -72 -100 -72 -21 0
-21 4 -21 186 l0 186 28 -6 c15 -4 38 -15 52 -25z m-1260 -1451 c160 -54 329
-45 503 25 15 6 17 0 17 -69 l0 -75 -147 -128 c-80 -70 -152 -128 -158 -128
-7 0 -78 57 -159 128 l-146 127 0 76 c0 68 2 75 18 69 9 -3 42 -15 72 -25z
m-237 -202 c41 -35 129 -110 194 -168 l120 -104 -171 -105 c-94 -57 -178 -106
-186 -108 -10 -2 -58 58 -143 177 -70 98 -129 185 -132 192 -4 12 50 57 172
141 30 20 59 37 64 37 4 0 41 -28 82 -62z m1049 25 c93 -65 177 -128 178 -134
0 -5 -251 -362 -267 -379 -5 -6 -40 14 -229 130 l-142 86 160 139 c167 146
227 195 238 195 4 0 32 -17 62 -37z m1412 -399 c12 -11 16 -36 16 -90 l0 -74
-129 0 -130 0 -35 59 c-20 32 -43 64 -52 71 -8 8 -20 22 -25 32 -9 17 -1 18
165 18 145 0 177 -3 190 -16z m-454 -126 l31 -38 -61 0 -60 0 0 60 0 61 30
-22 c16 -12 43 -39 60 -61z m350 -813 l0 -45 -165 0 -165 0 0 45 0 45 165 0
165 0 0 -45z"/>
<path d="M1530 3777 c-39 -19 -52 -54 -47 -125 6 -75 25 -102 74 -102 56 0 73
27 73 118 0 63 -4 82 -17 94 -27 24 -55 29 -83 15z"/>
<path d="M2445 3780 c-40 -15 -50 -40 -50 -115 0 -88 17 -115 75 -115 58 0 75
26 75 116 0 60 -4 77 -20 93 -25 24 -54 32 -80 21z"/>
<path d="M1949 3581 c-22 -18 -24 -27 -27 -138 -4 -145 8 -186 62 -208 49 -21
129 -19 155 3 11 9 24 31 27 49 5 26 1 37 -19 57 -15 14 -38 26 -52 26 -25 0
-25 0 -25 93 0 85 -2 96 -23 115 -29 27 -67 28 -98 3z"/>
<path d="M1661 3054 c-12 -15 -21 -33 -21 -41 0 -43 83 -134 159 -172 134 -69
310 -66 443 6 58 31 134 110 144 148 10 40 -23 79 -69 83 -32 3 -42 -2 -81
-43 -64 -66 -122 -89 -221 -89 -98 0 -157 23 -220 89 -54 55 -100 62 -134 19z"/>
</g>
</svg>
